<mxfile host="app.diagrams.net" modified="2022-05-17T09:33:01.050Z" agent="5.0 (Windows)" etag="azGVxJM6m8yzv5b1chq7" version="18.0.6" type="github">
  <diagram id="ojhRY_1zvZBuSHtZZLaS" name="Page-1">
    <mxGraphModel dx="638" dy="536" grid="0" gridSize="10" guides="1" tooltips="1" connect="1" arrows="1" fold="1" page="0" pageScale="1" pageWidth="850" pageHeight="1100" math="0" shadow="0">
      <root>
        <mxCell id="0" />
        <mxCell id="1" parent="0" />
        <mxCell id="zeNO0scl5gailHSOh_lj-3" value="" style="edgeStyle=orthogonalEdgeStyle;rounded=0;orthogonalLoop=1;jettySize=auto;html=1;" edge="1" parent="1" source="zeNO0scl5gailHSOh_lj-1" target="zeNO0scl5gailHSOh_lj-2">
          <mxGeometry relative="1" as="geometry" />
        </mxCell>
        <UserObject label="&lt;div&gt;Controller&lt;/div&gt;POST" id="zeNO0scl5gailHSOh_lj-1">
          <mxCell style="whiteSpace=wrap;html=1;align=center;treeFolding=1;treeMoving=1;newEdgeStyle={&quot;edgeStyle&quot;:&quot;elbowEdgeStyle&quot;,&quot;startArrow&quot;:&quot;none&quot;,&quot;endArrow&quot;:&quot;none&quot;};fontStyle=0;fontSize=14;" vertex="1" parent="1">
            <mxGeometry x="692" y="364" width="164" height="60" as="geometry" />
          </mxCell>
        </UserObject>
        <mxCell id="zeNO0scl5gailHSOh_lj-5" value="" style="edgeStyle=orthogonalEdgeStyle;rounded=0;orthogonalLoop=1;jettySize=auto;html=1;" edge="1" parent="1" source="zeNO0scl5gailHSOh_lj-2" target="zeNO0scl5gailHSOh_lj-4">
          <mxGeometry relative="1" as="geometry" />
        </mxCell>
        <mxCell id="zeNO0scl5gailHSOh_lj-15" value="" style="edgeStyle=orthogonalEdgeStyle;rounded=0;orthogonalLoop=1;jettySize=auto;html=1;entryX=0;entryY=0.5;entryDx=0;entryDy=0;" edge="1" parent="1" source="zeNO0scl5gailHSOh_lj-2" target="zeNO0scl5gailHSOh_lj-14">
          <mxGeometry relative="1" as="geometry" />
        </mxCell>
        <UserObject label="&lt;div&gt;ScheduledEventHandler.&lt;/div&gt;&lt;div&gt;createPeriodicEvent&lt;br&gt;&lt;/div&gt;" id="zeNO0scl5gailHSOh_lj-2">
          <mxCell style="whiteSpace=wrap;html=1;align=center;treeFolding=1;treeMoving=1;newEdgeStyle={&quot;edgeStyle&quot;:&quot;elbowEdgeStyle&quot;,&quot;startArrow&quot;:&quot;none&quot;,&quot;endArrow&quot;:&quot;none&quot;};fontStyle=0;fontSize=14;" vertex="1" parent="1">
            <mxGeometry x="936" y="364" width="164" height="60" as="geometry" />
          </mxCell>
        </UserObject>
        <mxCell id="zeNO0scl5gailHSOh_lj-8" value="" style="edgeStyle=orthogonalEdgeStyle;rounded=0;orthogonalLoop=1;jettySize=auto;html=1;" edge="1" parent="1" source="zeNO0scl5gailHSOh_lj-4" target="zeNO0scl5gailHSOh_lj-7">
          <mxGeometry relative="1" as="geometry" />
        </mxCell>
        <mxCell id="zeNO0scl5gailHSOh_lj-10" value="" style="edgeStyle=orthogonalEdgeStyle;rounded=0;orthogonalLoop=1;jettySize=auto;html=1;entryX=0;entryY=0.5;entryDx=0;entryDy=0;" edge="1" parent="1" source="zeNO0scl5gailHSOh_lj-4" target="zeNO0scl5gailHSOh_lj-9">
          <mxGeometry relative="1" as="geometry" />
        </mxCell>
        <mxCell id="zeNO0scl5gailHSOh_lj-13" value="" style="edgeStyle=orthogonalEdgeStyle;rounded=0;orthogonalLoop=1;jettySize=auto;html=1;entryX=0;entryY=0.5;entryDx=0;entryDy=0;" edge="1" parent="1" source="zeNO0scl5gailHSOh_lj-4" target="zeNO0scl5gailHSOh_lj-12">
          <mxGeometry relative="1" as="geometry" />
        </mxCell>
        <UserObject label="&lt;div&gt;ScheduledEventHandler.&lt;/div&gt;&lt;div&gt;persistNewEvent&lt;br&gt;&lt;/div&gt;" id="zeNO0scl5gailHSOh_lj-4">
          <mxCell style="whiteSpace=wrap;html=1;align=center;treeFolding=1;treeMoving=1;newEdgeStyle={&quot;edgeStyle&quot;:&quot;elbowEdgeStyle&quot;,&quot;startArrow&quot;:&quot;none&quot;,&quot;endArrow&quot;:&quot;none&quot;};fontStyle=0;fontSize=14;" vertex="1" parent="1">
            <mxGeometry x="1180" y="364" width="164" height="60" as="geometry" />
          </mxCell>
        </UserObject>
        <mxCell id="zeNO0scl5gailHSOh_lj-6" value="DEFAULT/periodic-events" style="text;html=1;strokeColor=none;fillColor=none;align=center;verticalAlign=middle;whiteSpace=wrap;rounded=0;" vertex="1" parent="1">
          <mxGeometry x="1232" y="281" width="207" height="30" as="geometry" />
        </mxCell>
        <UserObject label="&lt;div&gt;Scheduler.&lt;/div&gt;&lt;div&gt;addPeriodicEvent&lt;br&gt;&lt;/div&gt;" id="zeNO0scl5gailHSOh_lj-7">
          <mxCell style="whiteSpace=wrap;html=1;align=center;treeFolding=1;treeMoving=1;newEdgeStyle={&quot;edgeStyle&quot;:&quot;elbowEdgeStyle&quot;,&quot;startArrow&quot;:&quot;none&quot;,&quot;endArrow&quot;:&quot;none&quot;};fontStyle=0;fontSize=14;" vertex="1" parent="1">
            <mxGeometry x="1424" y="364" width="164" height="60" as="geometry" />
          </mxCell>
        </UserObject>
        <UserObject label="&lt;div&gt;PeriodicEventFileService.&lt;/div&gt;&lt;div&gt;writeToFile&lt;br&gt;&lt;/div&gt;" id="zeNO0scl5gailHSOh_lj-9">
          <mxCell style="whiteSpace=wrap;html=1;align=center;treeFolding=1;treeMoving=1;newEdgeStyle={&quot;edgeStyle&quot;:&quot;elbowEdgeStyle&quot;,&quot;startArrow&quot;:&quot;none&quot;,&quot;endArrow&quot;:&quot;none&quot;};fontStyle=0;fontSize=14;" vertex="1" parent="1">
            <mxGeometry x="1424" y="456" width="164" height="60" as="geometry" />
          </mxCell>
        </UserObject>
        <UserObject label="&lt;div&gt;CMMediatorService.&lt;/div&gt;&lt;div&gt;addPeriodicEvent&lt;br&gt;&lt;/div&gt;" id="zeNO0scl5gailHSOh_lj-12">
          <mxCell style="whiteSpace=wrap;html=1;align=center;treeFolding=1;treeMoving=1;newEdgeStyle={&quot;edgeStyle&quot;:&quot;elbowEdgeStyle&quot;,&quot;startArrow&quot;:&quot;none&quot;,&quot;endArrow&quot;:&quot;none&quot;};fontStyle=0;fontSize=14;" vertex="1" parent="1">
            <mxGeometry x="1424" y="542" width="164" height="60" as="geometry" />
          </mxCell>
        </UserObject>
        <mxCell id="zeNO0scl5gailHSOh_lj-17" value="" style="edgeStyle=orthogonalEdgeStyle;rounded=0;orthogonalLoop=1;jettySize=auto;html=1;" edge="1" parent="1" source="zeNO0scl5gailHSOh_lj-14" target="zeNO0scl5gailHSOh_lj-16">
          <mxGeometry relative="1" as="geometry" />
        </mxCell>
        <UserObject label="&lt;div&gt;PeriodicEventScheduler.&lt;/div&gt;&lt;div&gt;scheduleEvent&lt;br&gt;&lt;/div&gt;" id="zeNO0scl5gailHSOh_lj-14">
          <mxCell style="whiteSpace=wrap;html=1;align=center;treeFolding=1;treeMoving=1;newEdgeStyle={&quot;edgeStyle&quot;:&quot;elbowEdgeStyle&quot;,&quot;startArrow&quot;:&quot;none&quot;,&quot;endArrow&quot;:&quot;none&quot;};fontStyle=0;fontSize=14;" vertex="1" parent="1">
            <mxGeometry x="1187" y="625" width="164" height="60" as="geometry" />
          </mxCell>
        </UserObject>
        <UserObject label="&lt;div&gt;ScheduledThreadPoolExecutor.&lt;/div&gt;&lt;div&gt;scheduleAtFixedRate&lt;br&gt;&lt;/div&gt;" id="zeNO0scl5gailHSOh_lj-16">
          <mxCell style="whiteSpace=wrap;html=1;align=center;treeFolding=1;treeMoving=1;newEdgeStyle={&quot;edgeStyle&quot;:&quot;elbowEdgeStyle&quot;,&quot;startArrow&quot;:&quot;none&quot;,&quot;endArrow&quot;:&quot;none&quot;};fontStyle=0;fontSize=14;" vertex="1" parent="1">
            <mxGeometry x="1417" y="625" width="223" height="60" as="geometry" />
          </mxCell>
        </UserObject>
      </root>
    </mxGraphModel>
  </diagram>
</mxfile>
